<mxfile host="app.diagrams.net" modified="2024-06-25T13:42:37.590Z" agent="Mozilla/5.0 (Windows NT 10.0; Win64; x64) AppleWebKit/537.36 (KHTML, like Gecko) Chrome/126.0.0.0 Safari/537.36" etag="qAhmv9R9zAXbFMIFktEn" version="24.6.2" type="device">
  <diagram name="Seite-1" id="eeHlrKDaATe0Gx07FJ2X">
    <mxGraphModel dx="936" dy="511" grid="1" gridSize="10" guides="1" tooltips="1" connect="1" arrows="1" fold="1" page="1" pageScale="1" pageWidth="827" pageHeight="1169" math="0" shadow="0">
      <root>
        <mxCell id="0" />
        <mxCell id="1" parent="0" />
        <mxCell id="LB5xCRc0om4zC5dP7ISU-1" value="Job Control System" style="rounded=0;whiteSpace=wrap;html=1;" vertex="1" parent="1">
          <mxGeometry x="190" y="120" width="120" height="60" as="geometry" />
        </mxCell>
        <mxCell id="LB5xCRc0om4zC5dP7ISU-2" value="Monitoring System" style="rounded=0;whiteSpace=wrap;html=1;" vertex="1" parent="1">
          <mxGeometry x="370" y="120" width="120" height="60" as="geometry" />
        </mxCell>
        <mxCell id="LB5xCRc0om4zC5dP7ISU-3" value="Robotic Arm System" style="rounded=0;whiteSpace=wrap;html=1;" vertex="1" parent="1">
          <mxGeometry x="190" y="230" width="120" height="60" as="geometry" />
        </mxCell>
        <mxCell id="LB5xCRc0om4zC5dP7ISU-4" value="&lt;div&gt;&lt;br&gt;&lt;/div&gt;Conveyor Belt System" style="rounded=0;whiteSpace=wrap;html=1;verticalAlign=top;" vertex="1" parent="1">
          <mxGeometry x="370" y="230" width="230" height="280" as="geometry" />
        </mxCell>
        <mxCell id="LB5xCRc0om4zC5dP7ISU-5" value="Camera System" style="rounded=0;whiteSpace=wrap;html=1;" vertex="1" parent="1">
          <mxGeometry x="425" y="291" width="120" height="60" as="geometry" />
        </mxCell>
        <mxCell id="LB5xCRc0om4zC5dP7ISU-6" value="Photoelectric Sensor System (Start)" style="rounded=0;whiteSpace=wrap;html=1;" vertex="1" parent="1">
          <mxGeometry x="425" y="361" width="120" height="60" as="geometry" />
        </mxCell>
        <mxCell id="LB5xCRc0om4zC5dP7ISU-7" value="Photoelectric Sensor System (End)" style="rounded=0;whiteSpace=wrap;html=1;" vertex="1" parent="1">
          <mxGeometry x="425" y="431" width="120" height="60" as="geometry" />
        </mxCell>
        <mxCell id="LB5xCRc0om4zC5dP7ISU-8" value="SMS Processor" style="rounded=0;whiteSpace=wrap;html=1;" vertex="1" parent="1">
          <mxGeometry x="90" y="340" width="120" height="60" as="geometry" />
        </mxCell>
        <mxCell id="LB5xCRc0om4zC5dP7ISU-9" value="EMail Processor" style="rounded=0;whiteSpace=wrap;html=1;" vertex="1" parent="1">
          <mxGeometry x="90" y="410" width="120" height="60" as="geometry" />
        </mxCell>
        <mxCell id="LB5xCRc0om4zC5dP7ISU-10" value="Log Processor" style="rounded=0;whiteSpace=wrap;html=1;" vertex="1" parent="1">
          <mxGeometry x="90" y="480" width="120" height="60" as="geometry" />
        </mxCell>
      </root>
    </mxGraphModel>
  </diagram>
</mxfile>
